<svg xmlns="http://www.w3.org/2000/svg" height="24" viewBox="0 -960 960 960" width="24"><path d="M721.804-413.283V-529.37H605.718v-78.826h116.086v-116.087h78.827v116.087h116.087v78.826H800.631v116.087h-78.827Zm-360.087-69.782q-68.087 0-115.608-47.522-47.522-47.522-47.522-115.609 0-68.087 47.522-115.489 47.521-47.402 115.608-47.402t115.609 47.402q47.522 47.402 47.522 115.489t-47.522 115.609q-47.522 47.522-115.609 47.522ZM42.587-160.804v-114.609q0-35.224 17.992-64.339 17.993-29.115 48.573-44.607 61.696-30.228 124.892-45.717 63.197-15.489 127.673-15.489 64.935 0 128.142 15.369 63.206 15.37 124.423 45.598 30.581 15.458 48.574 44.506 17.992 29.049 17.992 64.666v114.622H42.587Z"/></svg>