<svg xmlns="http://www.w3.org/2000/svg" height="24" viewBox="0 -960 960 960" width="24"><path d="M-1.326-238.674V-303q0-44.413 44.696-71.37Q88.065-401.326 160-401.326q13.087 0 23.804.63 10.718.631 20.283 2.109-14.218 21.5-20.957 44.816-6.739 23.317-6.739 48.661v66.436H-1.326Zm240 0v-66.481q0-31.562 17.119-58.649 17.12-27.087 49.837-47.066 32.718-19.978 77.265-30.217 44.548-10.239 96.852-10.239 53.31 0 97.738 10.239t77.145 30.217q32.718 19.979 49.707 46.848 16.989 26.869 16.989 59.022v66.326H238.674Zm544.935 0V-305q0-25.784-6.609-49.17-6.609-23.386-19.826-44.374 9.565-1.521 19.93-2.152 10.364-.63 22.896-.63 72.222 0 116.774 26.862 44.552 26.862 44.552 71.464v64.326H783.609ZM159.999-445.37q-32.956 0-56.423-23.468-23.467-23.469-23.467-56.425 0-33.955 23.468-56.922 23.469-22.967 56.425-22.967 33.955 0 56.922 22.969t22.967 56.923q0 32.956-22.969 56.423t-56.923 23.467Zm640 0q-32.956 0-56.423-23.468-23.467-23.469-23.467-56.425 0-33.955 23.468-56.922 23.469-22.967 56.425-22.967 33.955 0 56.922 22.969t22.967 56.923q0 32.956-22.969 56.423t-56.923 23.467Zm-320.237-40.717q-50.356 0-85.722-35.387-35.366-35.387-35.366-85.939 0-50.935 35.387-86.131 35.386-35.195 85.939-35.195 50.935 0 86.13 35.195 35.196 35.196 35.196 86.368 0 50.357-35.196 85.723-35.195 35.366-86.368 35.366Z"/></svg>