<svg xmlns="http://www.w3.org/2000/svg" height="24" viewBox="0 -960 960 960" width="24"><path d="M357.674-202v-86h481.457v86H357.674Zm0-235.5v-86h481.457v86H357.674Zm0-234.5v-86h481.457v86H357.674ZM201.489-163.978q-33.489 0-57.174-23.848-23.685-23.848-23.685-57.337 0-33.489 23.848-57.174 23.849-23.685 57.337-23.685 33.489 0 57.174 23.848 23.685 23.848 23.685 57.337 0 33.489-23.848 57.174-23.848 23.685-57.337 23.685Zm0-235.5q-33.489 0-57.174-23.848-23.685-23.848-23.685-57.337 0-33.489 23.848-57.174 23.849-23.685 57.337-23.685 33.489 0 57.174 23.848 23.685 23.848 23.685 57.337 0 33.489-23.848 57.174-23.848 23.685-57.337 23.685Zm0-234.5q-33.489 0-57.174-23.848-23.685-23.848-23.685-57.337 0-33.489 23.848-57.174 23.849-23.685 57.337-23.685 33.489 0 57.174 23.848 23.685 23.848 23.685 57.337 0 33.489-23.848 57.174-23.848 23.685-57.337 23.685Z"/></svg>